<svg xmlns="http://www.w3.org/2000/svg" width="465" height="398" style="background-color:#fff"><g transform="translate(.5 .5)"><rect width="159" height="250" x="84" y="54" fill="#f5f5f5" stroke="#000" pointer-events="none" rx="14.31" ry="14.31"/><rect width="139" height="140" x="94" y="84" fill="#fcc" stroke="#000" pointer-events="none" rx="11.12" ry="11.12"/><rect width="139" height="50" x="94" y="239" fill="#9cf" stroke="#000" pointer-events="none" rx="10" ry="10"/><path fill="#fff" stroke="#000" d="M102 249h120v30H102z" pointer-events="none"/><text x="161.5" y="266.5" font-family="Helvetica" font-size="10" text-anchor="middle">.NET  Framework BCL</text><path fill="#fff" stroke="#000" d="M103 94h58v30h-58z" pointer-events="none"/><text x="131.5" y="111.5" font-family="Helvetica" font-size="10" text-anchor="middle">ASP.NET</text><path fill="#fff" stroke="#000" d="M171 94h52v30h-52z" pointer-events="none"/><text x="196.5" y="111.5" font-family="Helvetica" font-size="10" text-anchor="middle">Console</text><path fill="#fff" stroke="#000" d="M102 139h121v30H102z" pointer-events="none"/><text x="162" y="156.5" font-family="Helvetica" font-size="10" text-anchor="middle">Windows Forms</text><path fill="#fff" stroke="#000" d="M101 179h121v30H101z" pointer-events="none"/><g font-family="Helvetica" font-size="10" text-anchor="middle"><text x="161" y="190.5">Windows Presentation</text><text x="161" y="202.5">Foundation (WPF)</text></g><text x="163" y="70.5" font-family="Helvetica" font-size="10" text-anchor="middle">.NET Framework</text><rect width="159" height="250" x="305" y="54" fill="#f5f5f5" stroke="#000" pointer-events="none" rx="14.31" ry="14.31"/><rect width="139" height="140" x="315" y="84" fill="#fcc" stroke="#000" pointer-events="none" rx="11.12" ry="11.12"/><rect width="139" height="50" x="315" y="239" fill="#9cf" stroke="#000" pointer-events="none" rx="10" ry="10"/><path fill="#fff" stroke="#000" d="M323 249h120v30H323z" pointer-events="none"/><text x="382.5" y="266.5" font-family="Helvetica" font-size="10" text-anchor="middle">Mono BCL</text><path fill="#fff" stroke="#000" d="M324 94h70v30h-70z" pointer-events="none"/><text x="358.5" y="111.5" font-family="Helvetica" font-size="10" text-anchor="middle">macOS</text><path fill="#fff" stroke="#000" d="M404 94h40v30h-40z" pointer-events="none"/><text x="423.5" y="111.5" font-family="Helvetica" font-size="10" text-anchor="middle">iOS</text><path fill="#fff" stroke="#000" d="M323 139h121v30H323z" pointer-events="none"/><text x="383" y="156.5" font-family="Helvetica" font-size="10" text-anchor="middle">Android</text><path fill="#fff" stroke="#000" d="M322 179h121v30H322z" pointer-events="none"/><text x="382" y="196.5" font-family="Helvetica" font-size="10" text-anchor="middle">Windows</text><text x="384" y="70.5" font-family="Helvetica" font-size="10" text-anchor="middle">Xamarin</text><path fill="none" stroke="#000" stroke-miterlimit="10" d="M73 84h-5q-5 0-5 10v50q0 10-5 10h-2.5 5q2.5 0 2.5 10v50q0 10 5 10h5m0 15h-5q-5 0-5 10v7.5q0 7.5-5 7.5h-2.5 5q2.5 0 2.5 10v7.5q0 7.5 5 7.5h5" pointer-events="none"/><g font-family="Helvetica" font-size="10" text-anchor="middle"><text x="28.5" y="150.5">App</text><text x="28.5" y="162.5">models</text></g><g font-family="Helvetica" font-size="10" text-anchor="middle"><text x="29.5" y="254.5">Base class</text><text x="29.5" y="266.5">libraries</text><text x="29.5" y="278.5">(BCLs)</text></g><g fill="#C00" font-family="Helvetica" font-size="10" text-anchor="middle"><text x="163.5" y="320.5">The BCL contains basic types, </text><text x="163.5" y="332.5">and APIs for file manipulation, </text><text x="163.5" y="344.5">streams, and serialization.</text></g><g fill="#C00" font-family="Helvetica" font-size="10" text-anchor="middle"><text x="373.5" y="321.5">Different BCLs contains similar, </text><text x="373.5" y="333.5">but slightly different, APIs.</text></g><g fill="#C00" font-family="Helvetica" font-size="10" text-anchor="middle"><text x="276.5" y="8.5">The app models represent the different</text><text x="276.5" y="20.5">types of app that you can build with the </text><text x="276.5" y="32.5">platform. They are typically very different </text><text x="276.5" y="44.5">between platforms.</text></g><rect width="381" height="40" x="83" y="357" fill="#cf9" stroke="#000" pointer-events="none" rx="6" ry="6"/><path fill="#fff" stroke="#000" d="M103 362h100v30H103z" pointer-events="none"/><text x="152.5" y="379.5" font-family="Helvetica" font-size="10" text-anchor="middle">Compilers</text><path fill="#fff" stroke="#000" d="M221 362h100v30H221z" pointer-events="none"/><text x="270.5" y="379.5" font-family="Helvetica" font-size="10" text-anchor="middle">Languages</text><path fill="#fff" stroke="#000" d="M342 362h100v30H342z" pointer-events="none"/><text x="391.5" y="379.5" font-family="Helvetica" font-size="10" text-anchor="middle">Runtime</text><path fill="none" stroke="#000" stroke-miterlimit="10" d="M73 357h-5q-5 0-5 10v5q0 5-5 5h-2.5 5q2.5 0 2.5 10v5q0 5 5 5h5" pointer-events="none"/><g font-family="Helvetica" font-size="10" text-anchor="middle"><text x="28.5" y="378.5">Common</text><text x="28.5" y="390.5">Infrastructure</text></g></g></svg>